<svg viewBox="0 0 117 32" width="117" height="32" xmlns="http://www.w3.org/2000/svg"><path d="M18.796.245c-.438.997-1.37 1.653-2.35 2.282-1.007.603-3.176 1.94-3.228 3.776v5.665h.36c.44-1.023 1.55-1.627 2.17-2.02.673-.42 2.61-1.468 2.79-3.25l.62-6.4-.362-.053zM5.282 6.697c.19 1.783 2.214 2.832 2.916 3.25.648.394 1.81.998 2.268 2.02h.378V6.304C10.79 4.467 8.522 3.13 7.47 2.527c-1.027-.63-2-1.285-2.458-2.282l-.38.052.65 6.4z" fill="#C4D600"/><path d="M10.58 22h.373v-5.674c0-2.416-3.5-3.835-5.422-4.94C2.78 9.84.963 8.867.4 7.5l-.4.052s.507 4.23.722 6.568c.186 1.812 2.858 3.126 4.78 4.228C8.23 19.898 10.02 20.66 10.58 22m2.365 0h.373c.56-1.34 2.352-2.102 5.076-3.652 1.924-1.102 4.595-2.416 4.782-4.228.214-2.338.722-6.568.722-6.568l-.4-.052c-.562 1.366-2.378 2.338-5.13 3.887-1.924 1.104-5.423 2.575-5.423 4.94V22z" fill="#84BD00"/><path d="M12.945 32h.375c.564-1.392 2.336-2.102 5.075-3.65 1.96-1.13 4.644-2.444 4.832-4.23.215-2.365.67-6.593.67-6.593l-.348-.027c-.564 1.34-2.417 2.338-5.155 3.835-1.96 1.103-5.45 2.548-5.45 4.99V32zm-2.367 0h.375v-5.674c0-2.443-3.49-3.888-5.45-4.99C2.766 19.837.914 18.84.35 17.5l-.35.027s.456 4.228.672 6.592c.187 1.786 2.872 3.1 4.832 4.23 2.738 1.548 4.51 2.258 5.074 3.65" fill="#00AE53"/><path d="M107.087 25.68h-3.1V15.664c0-1.686-.053-2.115-1.485-2.062v-2.088c2.014-.348 4.267-.482 4.267 2.222.873-1.74 2.968-2.517 4.77-2.517 3.95 0 5.46 2.33 5.46 6.293v8.166h-3.1v-8.007c0-2.81-1.087-3.855-3.128-3.882-1.962-.026-3.685 1.58-3.685 3.856v8.033zM70.244 13.71c-1.96 0-3.26 1.018-3.685 3.24h7.29c.08-2.115-1.724-3.24-3.606-3.24zM41.564 26c-4.823 0-9.7-2.73-9.7-9.693 0-6.96 4.877-9.692 9.7-9.692 4.693 0 8.588 2.517 8.854 7.016h-3.34c-.398-2.356-2.04-3.882-5.38-3.882-3.55 0-6.176 2.302-6.203 6.56.027 4.23 2.652 6.56 6.202 6.56 3.34 0 4.983-1.527 5.38-3.883h3.34c-.265 4.5-4.16 7.015-8.852 7.015zm21.603-7.657c.08-4.74 3.313-7.123 7.13-7.123 4.93 0 7.13 3.32 6.203 8.006H66.48c0 2.57 1.803 4.07 4.56 4.07 2.094 0 3.128-.402 4.745-1.017l.45 2.49C74.775 25.517 73 26 70.88 26c-4.61 0-7.872-2.892-7.713-7.657zm16.142 2.623V6h3.1v14.886c0 2.115.346 2.678 2.942 2.41l.132 2.41c-4.16.936-6.175-.295-6.175-4.74zm17.228-.054v-1.177c-.98-.616-2.173-.99-3.34-.964-1.882.027-3.1.938-3.1 2.464 0 1.447 1.033 2.276 2.89 2.276 1.323 0 3.232-.803 3.55-2.598zM92.11 26c-2.78 0-5.194-1.553-5.194-4.712 0-3.08 2.52-4.74 5.778-4.74 1.274 0 2.678.375 3.844 1.072v-1.152c0-2.14-1.565-2.758-3.604-2.758-1.75 0-3.5.51-4.48 1.072l-.45-2.437c1.43-.696 3.312-1.125 5.3-1.125 3.71 0 6.335 1.232 6.335 5.115v5.328c0 1.633-.03 2.168 1.403 2.062l.08 1.926c-2.2.565-3.976.243-3.976-2.354C96.193 25.224 93.993 26 92.11 26zm-35.2-.32h-3.1V15.664c.028-1.686-.025-2.115-1.483-2.062v-2.088c2.04-.348 4.293-.482 4.293 2.222.424-1.633 2.545-2.517 3.764-2.517 1.06 0 1.96.16 2.783.857L62.4 14.7c-.717-.507-1.433-.72-2.282-.72-1.616 0-3.207 1.364-3.207 3.666v8.033z" fill="#006341"/></svg>